# AST/ASF file generated using VICON BodyLanguage
# -----------------------------------------------
:version 1.10
:name VICON
:units
  mass 1.0
  length 0.45
  angle deg
:documentation
   .ast/.asf automatically generated from VICON data using
   VICON BodyBuilder and BodyLanguage model FoxedUp or BRILLIANT.MOD
:root
   order TX TY TZ RX RY RZ
   axis XYZ
   position 0 0 0  
   orientation 0 0 0 
:bonedata
  begin
     id 1 
     name lhipjoint
     direction 0.603808 -0.713975 0.35448 
     length 2.2025 
     axis 0 0 0  XYZ
  end
  begin
     id 2 
     name lfemur
     direction 0.34202 -0.939693 0  
     length 6.55877  
     axis 0 0 20  XYZ
    dof rx ry rz
    limits (-160.0 20.0)
           (-70.0 70.0)
           (-60.0 70.0)
  end
  begin
     id 3 
     name ltibia
     direction 0.34202 -0.939693 0   
     length 6.80302   
     axis 0 0 20   XYZ
    dof rx
    limits (-10.0 170.0)
  end
  begin
     id 4 
     name lfoot
     direction 0.091848 -0.25235 0.963267   
     length 2.03446   
     axis -90 7.62852e-016 20   XYZ
    dof rx rz
    limits (-45.0 90.0)
           (-70.0 20.0)
  end
  begin
     id 5 
     name ltoes
     direction 1.53608e-011 -4.21925e-011 1   
     length 1.02033   
     axis -90 7.62852e-016 20   XYZ
    dof rx
    limits (-90.0 20.0)
  end
  begin
     id 6 
     name rhipjoint
     direction -0.587285 -0.724947 0.359928   
     length 2.16916  
     axis 0 0 0  XYZ 
  end
  begin
     id 7 
     name rfemur
     direction -0.34202 -0.939693 0   
     length 6.43173   
     axis 0 0 -20   XYZ
    dof rx ry rz
    limits (-160.0 20.0)
           (-70.0 70.0)
           (-70.0 60.0)
  end
  begin
     id 8 
     name rtibia
     direction -0.34202 -0.939693 0   
     length 6.70662   
     axis 0 0 -20   XYZ
    dof rx
    limits (-10.0 170.0)
 end
 begin
     id 9 
     name rfoot
     direction -0.11854 -0.325686 0.938018   
     length 2.0773  
     axis -90 -7.62852e-016 -20   XYZ
    dof rx rz
    limits (-45.0 90.0)
           (-20.0 70.0)
  end
  begin
     id 10 
     name rtoes
     direction -1.53547e-011 -4.21838e-011 1   
     length 1.03267   
     axis -90 -7.62852e-016 -20   XYZ
    dof rx
    limits (-90.0 20.0)
  end
  begin
     id 11 
     name lowerback
     direction -0.0286554 0.999539 0.0100613   
     length 2.08751   
     axis 0 0 0   XYZ
    dof rx ry rz
    limits (-20.0 45.0)
           (-30.0 30.0)
           (-30.0 30.0)
  end
  begin
     id 12 
     name upperback
     direction 0.0227093 0.999705 -0.00860929   
     length 2.08517   
     axis 0 0 0   XYZ
    dof rx ry rz
    limits (-20.0 45.0)
           (-30.0 30.0)
           (-30.0 30.0)
  end
  begin
     id 13 
     name thorax
     direction 0.0351627 0.999285 -0.013892   
     length 2.08412   
     axis 0 0 0   XYZ
    dof rx ry rz
    limits (-20.0 45.0)
           (-30.0 30.0)
           (-30.0 30.0)
  end
  begin
     id 14 
     name lowerneck
     direction -0.0696283 0.997344 0.0213922   
     length 1.44164   
     axis 0 0 0   XYZ
    dof rx ry rz
    limits (-20.0 45.0)
           (-30.0 30.0)
           (-30.0 30.0)
  end
  begin
     id 15 
     name upperneck
     direction 0.0531 0.990412 -0.127531   
     length 1.45022   
     axis 0 0 0   XYZ
    dof rx ry rz
    limits (-20.0 45.0)
           (-30.0 30.0)
           (-30.0 30.0)
  end
  begin
     id 16
     name head
     direction 0.0188154 0.998548 -0.0504727  
     length 1.45845  
     axis 0 0 0   XYZ
    dof rx ry rz
    limits (-20.0 45.0)
           (-30.0 30.0)
           (-30.0 30.0)
  end
  begin
     id 17 
     name lclavicle
     direction 0.961559 0.260051 0.088188  
     length 2.86057  
     axis 0 0 0   XYZ
    dof ry rz
    limits (-20.0 10.0)
           (0.0 20.0)
  end
  begin
     id 18 
     name lhumerus
     direction 1 -4.48959e-011 2.88185e-027   
     length 4.36901   
     axis 180 -30 -90   XYZ
    dof rx ry rz
    limits (-60.0 90.0)
           (-90.0 90.0)
           (-90.0 90.0)
  end
  begin
     id 19
     name lradius
     direction 1 -4.48965e-011 -3.92618e-028   
     length 3.21737   
     axis 180 -30 -90   XYZ
    dof rx
    limits (-10.0 170.0)
  end
  begin
     id 20
     name lwrist
     direction 1 -4.49037e-011 2.57246e-027   
     length 1.60869   
     axis -1.61769e-015 90 90   XYZ
    dof ry
    limits (-180.0 0.0)
 end
  begin
     id 21 
     name lhand
     direction 1 -4.48807e-011 5.12958e-027   
     length 0.564313   
     axis -3.27988e-015 90 90   XYZ
    dof rx rz
    limits (-90.0 90.0)
           (-45.0 45.0)
  end
  begin
     id 22 
     name lfingers
     direction 1 -4.48879e-011 1.02687e-026   
     length 0.454963   
     axis -6.5598e-015 90 90   XYZ
    dof rx
    limits (0.0 90.0)
  end
  begin
     id 23
     name lthumb
     direction 0.707107 -6.3475e-011 0.707107   
     length 0.653239   
     axis -90 45 2.19363e-014   XYZ
    dof rx rz
    limits (-45.0 45.0)
           (-45.0 45.0)
  end
  begin
     id 24 
     name rclavicle
     direction -0.954677 0.253915 0.155304   
     length 3.11497  
     axis 0 0 0   XYZ 
    dof ry rz
    limits (-10.0 20.0)
           (-20.0 0.0)
  end
  begin
     id 25 
     name rhumerus
     direction -1 -4.48958e-011 -8.20169e-028  
     length 4.34118   
     axis 180 30 90   XYZ
    dof rx ry rz
    limits (-90.0 60.0)
           (-90.0 90.0)
           (-90.0 90.0)
  end
  begin
     id 26 
     name rradius
     direction -1 -4.48978e-011 1.5676e-027   
     length 3.09531   
     axis 180 30 90   XYZ
    dof rx
    limits (-10.0 170.0)
  end
  begin
     id 27 
     name rwrist
     direction -1 -4.49001e-011 2.57123e-027   
     length 1.54765   
     axis -1.61769e-015 -90 -90   XYZ
    dof ry
    limits (-180.0 0.0)
  end
  begin
     id 28
     name rhand
     direction -1 -4.48847e-011 5.13225e-027   
     length 0.597446   
     axis -3.27988e-015 -90 -90   XYZ
    dof rx rz
    limits (-90.0 90.0)
           (-45.0 45.0)
  end
  begin
     id 29
     name rfingers
     direction -1 -4.49094e-011 1.02974e-026   
     length 0.481677   
     axis -6.5598e-015 -90 -90   XYZ
    dof rx
    limits (0.0 90.0)
  end
  begin
     id 30
     name rthumb
     direction -0.707107 -6.34859e-011 0.707107   
     length 0.691594   
     axis -90 -45 -2.19363e-014   XYZ
    dof rx rz
    limits (-45.0 45.0)
           (-45.0 45.0)
  end
:hierarchy
  begin
    root lhipjoint rhipjoint lowerback
    lhipjoint lfemur
    lfemur ltibia
    ltibia lfoot
    lfoot ltoes
    rhipjoint rfemur
    rfemur rtibia
    rtibia rfoot
    rfoot rtoes
    lowerback upperback
    upperback thorax
    thorax lowerneck lclavicle rclavicle
    lowerneck upperneck
    upperneck head
    lclavicle lhumerus
    lhumerus lradius
    lradius lwrist
    lwrist lhand lthumb
    lhand lfingers
    rclavicle rhumerus
    rhumerus rradius
    rradius rwrist
    rwrist rhand rthumb
    rhand rfingers
  end

#!OML:ASF I:\Acrobat_Osman\acrobat\cartwheel_test 2\Patient 1\Session 1\acrobat.ASF
:FULLY-SPECIFIED
:DEGREES
2081
root 9.21067 28.3334 19.8383 184.796 -171.946 -361.22
lowerback -10.445 -0.366651 -5.92367
upperback -12.9236 -0.120511 1.28306
thorax -7.94502 0.296485 4.71036
lowerneck -17.082 -3.17616 -4.68499
upperneck -13.045 -3.82291 6.17039
head -1.13357 -2.2405 2.66365
rclavicle 4.6118e-014 8.74653e-015
rhumerus 80.7613 -24.182 -53.1232
rradius 41.9967
rwrist -7.34599
rhand -56.1809 -454.48
rfingers 7.12502
rthumb -28.5091 66.6324
lclavicle 4.6118e-014 8.74653e-015
lhumerus -84.2372 151.645 236.7
lradius 30.3337
lwrist -350.975
lhand -36.1639 -304.751
lfingers 7.12502
lthumb -9.26791 805.025
rfemur -7.30021 1.90693 24.5956
rtibia 46.4847
rfoot 9.04965 -9.33332
rtoes -6.67936
lfemur 171.408 175.58 157.326
ltibia 46.6109
lfoot -3.51053 -9.37705
ltoes 47.0344
2082
root 9.17287 28.2669 19.809 184.38 -172.159 -361.125
lowerback -10.1529 -0.40122 -5.91923
upperback -12.9481 -0.182615 1.40468
thorax -8.13033 0.277756 4.83861
lowerneck -17.1361 -3.09814 -4.93365
upperneck -13.0879 -3.67828 6.37143
head -1.1385 -2.1653 2.7863
rclavicle -1.42131e-014 -1.68967e-014
rhumerus 79.3018 -23.5342 -52.5739
rradius 43.7046
rwrist -7.30323
rhand -56.1104 -454.769
rfingers 7.12502
rthumb -28.4417 66.9103
lclavicle -1.42131e-014 -1.68967e-014
lhumerus -83.642 154.297 239.839
lradius 28.2552
lwrist -353.889
lhand -39.5872 -298.874
lfingers 7.12502
lthumb -12.5698 629.272
rfemur -7.58121 2.20351 24.604
rtibia 46.2683
rfoot 9.10252 -9.29725
rtoes -6.40865
lfemur 171.038 175.7 157.209
ltibia 46.5689
lfoot -3.10811 -9.11148
ltoes 47.5971
2083
root 9.1252 28.1812 19.7813 183.874 -172.383 -360.897
lowerback -9.88648 -0.473985 -5.95549
upperback -12.9422 -0.290756 1.59033
thorax -8.26214 0.240769 5.05806
lowerneck -16.8873 -3.03128 -5.2631
upperneck -13.2813 -3.55205 6.38317
head -1.24473 -2.10084 2.8654
rclavicle 1.21756e-014 -6.16232e-015
rhumerus 78.2396 -22.4521 -52.6116
rradius 45.387
rwrist -6.7835
rhand -55.9351 -454.678
rfingers 7.12502
rthumb -28.2742 66.7916
lclavicle 1.21756e-014 -6.16232e-015
lhumerus -83.5992 154.966 241.623
lradius 27.5104
lwrist -352.575
lhand -42.0285 -294.046
lfingers 7.12502
lthumb -14.9226 624.603
rfemur -7.84139 2.40737 24.438
rtibia 46.0687
rfoot 8.85727 -8.96759
rtoes -7.89079
lfemur 170.667 175.775 156.937
ltibia 46.4848
lfoot -2.76408 -8.76808
ltoes 48.0811
2084
root 9.06683 28.0819 19.7561 183.38 -172.654 -360.556
lowerback -9.71266 -0.540534 -5.93812
upperback -12.9582 -0.392165 1.70649
thorax -8.36542 0.195889 5.17323
lowerneck -16.6145 -2.94283 -5.3863
upperneck -13.3367 -3.44128 6.20038
head -1.31533 -2.04415 2.8357
rclavicle -3.29237e-016 -1.35236e-014
rhumerus 77.0404 -21.3213 -52.8857
rradius 47.3936
rwrist -6.1771
rhand -55.7279 -454.415
rfingers 7.12502
rthumb -28.0762 66.4966
lclavicle -3.29237e-016 -1.35236e-014
lhumerus -85.4064 154.098 240.971
lradius 28.7157
lwrist -350.047
lhand -43.4356 -289.369
lfingers 7.12502
lthumb -16.2778 620.033
rfemur -8.27171 2.38115 24.0649
rtibia 45.876
rfoot 8.73849 -7.95056
rtoes -5.77411
lfemur 170.27 175.816 156.522
ltibia 46.3582
lfoot -2.38572 -8.42864
ltoes 48.5705
2085
root 9.00183 27.9741 19.7288 182.841 -172.901 -360.237
lowerback -9.59433 -0.516174 -5.74955
upperback -12.9282 -0.381687 1.70758
thorax -8.39448 0.182223 5.06904
lowerneck -16.1746 -2.87243 -5.50308
upperneck -13.5648 -3.3471 6.14913
head -1.46697 -2.00134 2.85525
rclavicle -4.77083e-015 1.62506e-014
rhumerus 75.824 -20.1458 -53.765
rradius 49.6063
rwrist -5.05241
rhand -55.6085 -454.49
rfingers 7.12502
rthumb -27.962 66.5526
lclavicle -4.77083e-015 1.62506e-014
lhumerus -94.4322 147.842 229.226
lradius 34.8165
lwrist -337.341
lhand -43.7821 -285.835
lfingers 7.12502
lthumb -16.6114 616.526
rfemur -8.72673 2.55212 23.7234
rtibia 45.6874
rfoot 7.69816 -9.17412
rtoes -6.67536
lfemur 169.94 175.885 156.126
ltibia 46.2138
lfoot -1.85269 -7.93288
ltoes 49.0052
2086
root 8.93856 27.8517 19.7013 182.199 -173.078 -360.024
lowerback -9.2194 -0.587573 -5.45136
upperback -13.0732 -0.49973 1.7732
thorax -8.7514 0.605412 4.90014
lowerneck -15.6279 -2.84038 -5.65471
upperneck -13.5331 -3.28705 6.26339
head -1.54154 -1.95872 2.93257
rclavicle -9.88954e-015 -1.68967e-015
rhumerus 74.0145 -18.8514 -54.6156
rradius 52.0109
rwrist -3.90224
rhand -55.5171 -454.505
rfingers 7.12502
rthumb -27.8747 66.5533
lclavicle -9.88954e-015 -1.68967e-015
lhumerus -97.481 148.653 230.571
lradius 38.8673
lwrist -338.383
lhand -44.1011 -286.113
lfingers 7.12502
lthumb -16.9185 616.83
rfemur -9.06081 3.2734 23.6428
rtibia 45.4888
rfoot 7.03263 -9.88007
rtoes -5.94911
lfemur 169.757 176.082 155.892
ltibia 46.0733
lfoot -1.42678 -7.565
ltoes 49.4693
